<?xml version="1.0" standalone="no"?>
<!DOCTYPE svg PUBLIC "-//W3C//DTD SVG 20010904//EN"
 "http://www.w3.org/TR/2001/REC-SVG-20010904/DTD/svg10.dtd">
<svg version="1.0" xmlns="http://www.w3.org/2000/svg"
 width="1108.000000pt" height="1108.000000pt" viewBox="0 0 1108.000000 1108.000000"
 preserveAspectRatio="xMidYMid meet">
<metadata>
Created by potrace 1.11, written by Peter Selinger 2001-2013
</metadata>
<g transform="translate(0.000000,1108.000000) scale(0.100000,-0.100000)"
fill="#000000" stroke="none">
<path d="M6640 9403 c-8 -3 -26 -10 -40 -16 -14 -6 -28 -11 -32 -11 -21 -3
-95 -88 -116 -136 l-26 -55 0 -1092 0 -1093 -20 -1 c-12 0 -31 -2 -43 -3 -13
-2 -23 1 -23 6 0 5 -5 6 -12 2 -16 -10 -948 -11 -948 -1 0 5 -5 5 -12 1 -16
-10 -948 -11 -948 -1 0 5 -5 5 -10 2 -6 -3 -50 -8 -98 -9 -137 -5 -230 -63
-275 -172 -20 -48 -21 -69 -23 -1124 -1 -591 -2 -1084 -3 -1095 -1 -20 -8 -20
-1099 -21 l-1097 0 -48 -23 c-88 -43 -152 -130 -161 -218 -2 -23 -7 -46 -10
-52 -4 -6 -4 -11 1 -11 4 0 8 -29 8 -65 0 -36 -4 -65 -9 -65 -5 0 -4 -6 1 -12
5 -7 7 -47 6 -88 -4 -87 -4 -78 0 -153 1 -31 -2 -57 -6 -57 -6 0 -6 -5 -1 -12
11 -16 11 -68 1 -85 -5 -7 -4 -13 0 -13 10 0 10 -61 -1 -78 -4 -7 -4 -12 1
-12 4 0 8 -29 8 -65 0 -36 -4 -65 -9 -65 -5 0 -4 -6 1 -12 10 -15 10 -159 -1
-176 -4 -7 -4 -12 1 -12 10 0 9 -93 -1 -109 -4 -6 -4 -11 1 -11 4 0 8 -20 8
-45 0 -25 -2 -45 -5 -45 -3 0 -4 -15 -3 -32 1 -18 4 -54 6 -81 2 -26 -1 -47
-5 -47 -5 0 -6 -5 -2 -12 11 -17 11 -78 1 -78 -4 0 -5 -5 -1 -12 11 -17 11
-78 1 -78 -4 0 -5 -5 -1 -12 11 -18 11 -78 1 -78 -6 0 -6 -5 -1 -12 11 -16 11
-68 1 -85 -5 -7 -5 -13 0 -13 10 0 9 -183 -1 -199 -4 -6 -4 -11 1 -11 10 0 9
-93 -1 -109 -4 -6 -4 -11 1 -11 4 0 8 -20 8 -45 0 -25 -4 -45 -8 -45 -4 0 -4
-8 0 -17 10 -21 9 -65 -1 -82 -4 -6 -4 -11 1 -11 10 0 9 -93 -1 -109 -4 -6 -4
-11 1 -11 4 0 8 -20 8 -45 0 -25 -4 -45 -8 -45 -5 0 -6 -3 -4 -8 3 -4 8 -25
11 -46 12 -73 18 -91 48 -136 31 -46 90 -96 130 -108 13 -4 626 -7 1363 -7
1279 0 1342 1 1377 18 79 40 140 122 153 208 9 60 12 789 3 789 -4 0 -5 7 -1
15 9 24 9 945 0 945 -5 0 -5 5 -1 12 4 6 7 102 6 214 l-1 201 1077 1 c592 0
1092 3 1111 7 70 12 170 86 186 136 4 11 10 19 14 19 4 0 8 6 9 13 0 6 4 28 8
47 4 19 7 520 8 1113 l0 1077 1076 1 c591 0 1082 2 1090 4 8 2 27 5 41 8 15 3
40 12 56 20 35 18 113 93 113 107 0 6 8 25 17 43 17 30 18 119 19 1322 2 1238
-2 1415 -27 1415 -5 0 -9 6 -9 14 0 8 -20 35 -45 60 -41 42 -62 55 -120 74
-24 8 -2644 13 -2665 5z"/>
<path d="M4387 8303 c-1 0 -112 -4 -247 -8 -259 -7 -308 -9 -460 -20 -52 -4
-113 -8 -135 -10 -54 -3 -182 -15 -225 -21 -19 -2 -62 -7 -95 -9 -33 -3 -71
-7 -85 -9 -14 -3 -50 -8 -80 -11 -30 -4 -66 -8 -80 -10 -38 -6 -113 -17 -135
-20 -65 -9 -116 -17 -160 -26 -27 -5 -66 -11 -85 -14 -19 -2 -60 -9 -90 -15
-30 -6 -66 -13 -80 -16 -14 -2 -38 -7 -55 -11 -36 -8 -30 -7 -80 -17 -22 -4
-96 -21 -165 -37 -160 -39 -157 -38 -177 -43 -77 -18 -382 -111 -466 -142 -20
-8 -37 -10 -37 -6 0 4 -4 2 -8 -4 -4 -6 -43 -23 -87 -39 -44 -15 -86 -32 -92
-37 -7 -6 -13 -8 -13 -5 0 4 -22 -5 -49 -18 -27 -14 -52 -25 -55 -25 -13 0
-241 -114 -247 -123 -3 -5 -8 -7 -10 -5 -11 9 -284 -163 -355 -224 -17 -16
-34 -28 -38 -28 -14 0 -187 -168 -228 -221 -13 -17 -33 -42 -46 -57 -39 -46
-43 -52 -37 -52 3 0 1 -6 -5 -12 -30 -36 -107 -179 -115 -212 -1 -6 -5 -18 -8
-26 -11 -27 -41 -134 -44 -160 -2 -14 -6 -81 -8 -150 -3 -118 9 -217 33 -275
18 -43 57 -120 62 -125 3 -3 17 -23 30 -45 40 -66 169 -187 276 -257 128 -85
306 -168 454 -213 30 -9 62 -19 70 -22 8 -3 20 -7 25 -9 6 -1 46 -12 90 -24
44 -12 91 -24 105 -26 14 -3 32 -7 40 -9 8 -3 33 -7 55 -11 22 -3 43 -8 46 -9
3 -2 28 -7 55 -10 27 -4 58 -9 69 -12 11 -4 31 -7 45 -8 23 -2 97 -11 165 -20
38 -5 185 -18 205 -18 8 0 20 -3 25 -7 6 -4 181 -6 390 -5 345 2 461 6 580 19
22 3 69 8 105 11 36 3 75 8 88 11 12 2 44 7 70 10 68 8 97 12 97 14 0 2 25 7
72 14 147 22 431 98 550 148 15 6 31 12 35 12 3 1 10 4 14 8 4 4 -32 7 -79 5
-48 -1 -87 -4 -87 -7 0 -7 -48 -5 -56 2 -3 4 -18 3 -32 -1 -15 -5 -36 -6 -47
-4 -43 9 -61 9 -76 1 -9 -4 -19 -5 -22 -2 -3 3 -61 7 -129 9 -68 2 -153 6
-189 9 -35 3 -102 8 -149 12 -47 3 -98 7 -115 9 -16 2 -57 6 -90 9 -33 3 -94
11 -135 17 -41 6 -91 12 -110 14 -19 2 -53 6 -75 10 -22 3 -53 7 -70 9 -16 2
-41 7 -55 10 -14 3 -41 8 -60 11 -19 2 -46 7 -60 10 -14 3 -47 9 -75 15 -27 5
-61 12 -75 15 -14 4 -38 9 -55 11 -16 3 -57 12 -90 20 -33 8 -68 17 -77 19
-81 19 -294 85 -378 118 -19 8 -51 20 -70 27 -45 17 -263 130 -270 139 -3 5
-10 10 -16 12 -39 14 -191 160 -214 205 -8 16 -18 31 -21 34 -3 3 -14 28 -25
55 -20 52 -26 194 -11 262 22 101 125 315 163 336 8 4 14 12 14 17 0 6 8 18
18 28 9 10 31 34 48 53 98 108 277 242 469 351 102 57 326 158 500 225 22 8
49 19 60 23 22 9 183 61 200 65 5 1 17 5 25 8 21 9 219 66 244 71 12 2 57 14
101 25 101 27 439 101 485 106 19 3 53 9 75 14 22 5 56 12 75 15 59 9 112 17
130 21 10 2 40 6 67 10 26 4 62 9 78 12 17 3 44 6 60 8 17 1 48 5 70 9 42 6
85 11 175 21 30 4 66 8 80 10 37 5 157 17 220 21 30 1 55 4 55 4 0 6 349 27
570 35 189 7 850 3 850 -5 0 0 38 -3 85 -5 117 -6 239 -15 275 -20 17 -2 55
-7 85 -10 30 -3 68 -7 83 -9 16 -2 25 0 20 4 -10 9 -305 77 -368 86 -11 1 -36
5 -55 9 -64 11 -94 16 -190 30 -25 4 -58 9 -75 11 -16 3 -52 7 -80 10 -61 5
-120 12 -120 14 0 0 -27 3 -60 5 -33 2 -94 7 -135 10 -116 10 -191 14 -375 19
-93 3 -180 8 -192 10 -13 3 -25 1 -28 -4 -3 -5 -12 -7 -20 -3 -13 4 -134 11
-138 6z"/>
<path d="M8607 5573 c-1 -1 -52 -4 -112 -7 -173 -9 -265 -17 -375 -31 -19 -3
-53 -7 -75 -9 -45 -6 -107 -15 -145 -22 -14 -2 -41 -7 -60 -10 -54 -8 -70 -11
-150 -29 -104 -23 -105 -23 -105 -25 0 -1 -7 -3 -16 -5 -71 -13 -326 -100
-343 -116 -6 -5 14 -6 45 -3 144 16 614 4 868 -21 30 -4 77 -8 105 -10 102 -9
298 -32 346 -41 14 -3 41 -7 60 -10 33 -4 180 -29 225 -38 33 -6 104 -18 112
-18 5 0 18 -4 31 -9 12 -5 34 -11 49 -14 76 -13 140 -27 153 -32 8 -3 23 -8
34 -10 40 -7 185 -52 205 -62 12 -7 21 -9 21 -7 0 5 140 -43 185 -63 306 -138
467 -259 539 -406 35 -73 38 -84 42 -180 3 -78 -15 -172 -47 -251 -7 -16 -12
-32 -11 -36 1 -5 -2 -8 -7 -8 -5 0 -12 -13 -16 -30 -4 -16 -11 -30 -16 -30 -5
0 -9 -5 -9 -11 0 -23 -97 -146 -180 -229 -113 -114 -265 -226 -410 -304 -30
-16 -57 -32 -60 -35 -4 -5 -76 -42 -90 -46 -3 -1 -32 -14 -65 -30 -134 -62
-185 -84 -254 -109 -39 -14 -84 -32 -100 -40 -16 -9 -31 -12 -34 -9 -4 3 -13
1 -20 -5 -7 -7 -22 -13 -33 -15 -10 -2 -32 -9 -47 -16 -16 -6 -70 -23 -120
-37 -51 -14 -117 -34 -147 -44 -30 -10 -68 -21 -85 -24 -36 -6 -144 -34 -165
-43 -8 -3 -18 -6 -22 -5 -4 1 -42 -7 -85 -17 -68 -17 -229 -51 -303 -64 -14
-3 -53 -10 -88 -17 -35 -6 -75 -13 -90 -15 -15 -2 -36 -6 -47 -8 -11 -3 -42
-8 -70 -12 -27 -3 -66 -9 -85 -12 -19 -2 -46 -6 -60 -8 -14 -2 -38 -5 -55 -8
-16 -3 -52 -8 -80 -12 -27 -3 -84 -10 -126 -16 -43 -5 -81 -9 -85 -8 -5 1 -11
1 -14 0 -10 -4 -76 -12 -130 -16 -30 -2 -55 -4 -55 -5 0 -1 -22 -3 -50 -5 -27
-2 -88 -7 -135 -10 -277 -23 -409 -28 -820 -28 -372 -1 -755 10 -755 22 0 1
-29 3 -65 6 -64 4 -136 11 -214 20 -48 6 -42 -3 11 -16 117 -30 171 -41 196
-43 15 0 27 -5 27 -10 0 -4 6 -6 14 -3 8 3 17 3 21 -1 3 -3 16 -7 28 -8 12 -1
31 -4 42 -7 24 -5 104 -20 125 -22 8 -1 33 -5 55 -8 22 -4 60 -9 85 -12 25 -4
59 -9 75 -12 17 -3 51 -6 77 -7 27 0 48 -3 48 -6 0 -3 24 -6 53 -7 53 -2 125
-8 232 -17 274 -25 1000 -26 1370 -2 164 11 253 18 281 22 17 3 55 7 85 9 69
6 145 14 189 19 72 10 146 19 175 22 17 1 30 3 30 4 0 1 14 3 30 5 38 5 105
14 136 20 13 2 42 6 64 9 22 3 49 7 60 9 19 4 53 10 120 21 24 4 182 37 300
62 11 2 45 9 75 15 30 6 74 17 98 25 23 8 46 13 50 13 4 -1 9 -1 12 1 3 1 14
3 25 5 11 2 61 16 110 30 50 15 97 28 105 30 8 2 51 15 95 29 44 14 105 32
135 42 30 9 75 25 100 35 25 10 99 39 165 64 167 65 495 226 533 263 7 6 18
12 23 12 7 0 139 88 174 117 6 5 30 24 55 43 140 109 326 318 356 403 3 9 10
17 15 17 5 0 9 6 9 13 0 6 11 32 24 57 64 123 96 278 92 455 -3 111 -7 141
-31 210 -15 44 -38 96 -51 115 -13 19 -24 38 -24 42 0 5 -8 17 -17 28 -10 11
-36 41 -58 68 -129 155 -361 295 -655 395 -71 24 -177 56 -210 62 -8 2 -15 4
-15 5 0 1 -11 4 -25 6 -14 3 -41 9 -60 14 -19 5 -50 12 -69 15 -19 3 -37 8
-41 10 -3 2 -28 6 -56 10 -27 3 -56 7 -64 10 -14 4 -33 7 -135 20 -22 3 -56 7
-75 10 -69 9 -146 17 -191 20 -26 1 -52 5 -57 9 -6 3 -13 2 -17 -4 -4 -6 -11
-7 -18 -3 -6 4 -47 8 -91 10 -90 4 -506 9 -509 6z"/>
</g>
</svg>
